<svg xmlns="http://www.w3.org/2000/svg" viewBox="0 0 128 128" role="img" aria-labelledby="title desc">
  <title id="title">AinoAI mark</title>
  <desc id="desc">A warm circular mark combining AI and the Japanese character for love.</desc>
  <rect width="128" height="128" rx="28" fill="#fffaf3"/>
  <circle cx="64" cy="64" r="48" fill="#f7efe2" stroke="#bb6b4f" stroke-width="4"/>
  <path d="M38 77c10 15 42 15 52 0 8-13-4-30-18-20-4 3-6 8-8 12-2-4-4-9-8-12-14-10-26 7-18 20Z" fill="#bb6b4f"/>
  <path d="M39 38h15l12 50H54l-2-10H40l-2 10H27l12-50Zm4 30h7l-3-16h-1l-3 16Zm33-30h12v50H76V38Z" fill="#50726b"/>
</svg>
