<svg xmlns="http://www.w3.org/2000/svg" viewBox="0 0 460 310" role="img" aria-label="Sparse neural network nodes forming a heart outline">
  <defs>
    <radialGradient id="warm-glow" cx="50%" cy="48%" r="58%">
      <stop offset="0" stop-color="#fff0ea" stop-opacity="0.62"/>
      <stop offset="1" stop-color="#fffaf6" stop-opacity="0"/>
    </radialGradient>
  </defs>
  <rect width="460" height="310" rx="26" fill="#fffaf6"/>
  <ellipse cx="230" cy="160" rx="148" ry="102" fill="url(#warm-glow)"/>
  <g fill="none" stroke-linecap="round">
    <line x1="32.0" y1="46.0" x2="68.0" y2="46.0" stroke="#202829" stroke-width="1.05" opacity="0.085"/>
    <line x1="32.0" y1="46.0" x2="68.0" y2="78.0" stroke="#202829" stroke-width="1.05" opacity="0.085"/>
    <line x1="32.0" y1="46.0" x2="32.0" y2="78.0" stroke="#202829" stroke-width="1.05" opacity="0.085"/>
    <line x1="68.0" y1="46.0" x2="104.0" y2="46.0" stroke="#202829" stroke-width="1.05" opacity="0.085"/>
    <line x1="68.0" y1="46.0" x2="104.0" y2="78.0" stroke="#202829" stroke-width="1.05" opacity="0.085"/>
    <line x1="68.0" y1="46.0" x2="68.0" y2="78.0" stroke="#202829" stroke-width="1.05" opacity="0.085"/>
    <line x1="104.0" y1="46.0" x2="140.0" y2="46.0" stroke="#202829" stroke-width="1.05" opacity="0.085"/>
    <line x1="104.0" y1="46.0" x2="140.0" y2="78.0" stroke="#202829" stroke-width="1.05" opacity="0.085"/>
    <line x1="104.0" y1="46.0" x2="104.0" y2="78.0" stroke="#202829" stroke-width="1.05" opacity="0.085"/>
    <line x1="140.0" y1="46.0" x2="176.0" y2="46.0" stroke="#202829" stroke-width="1.05" opacity="0.085"/>
    <line x1="140.0" y1="46.0" x2="176.0" y2="78.0" stroke="#202829" stroke-width="1.05" opacity="0.085"/>
    <line x1="140.0" y1="46.0" x2="140.0" y2="78.0" stroke="#202829" stroke-width="1.05" opacity="0.085"/>
    <line x1="176.0" y1="46.0" x2="212.0" y2="46.0" stroke="#202829" stroke-width="1.05" opacity="0.085"/>
    <line x1="176.0" y1="46.0" x2="212.0" y2="78.0" stroke="#202829" stroke-width="1.05" opacity="0.085"/>
    <line x1="176.0" y1="46.0" x2="176.0" y2="78.0" stroke="#202829" stroke-width="1.05" opacity="0.085"/>
    <line x1="212.0" y1="46.0" x2="248.0" y2="46.0" stroke="#202829" stroke-width="1.05" opacity="0.085"/>
    <line x1="212.0" y1="46.0" x2="248.0" y2="78.0" stroke="#202829" stroke-width="1.05" opacity="0.085"/>
    <line x1="212.0" y1="46.0" x2="212.0" y2="78.0" stroke="#202829" stroke-width="1.05" opacity="0.085"/>
    <line x1="248.0" y1="46.0" x2="284.0" y2="46.0" stroke="#202829" stroke-width="1.05" opacity="0.085"/>
    <line x1="248.0" y1="46.0" x2="284.0" y2="78.0" stroke="#202829" stroke-width="1.05" opacity="0.085"/>
    <line x1="248.0" y1="46.0" x2="248.0" y2="78.0" stroke="#202829" stroke-width="1.05" opacity="0.085"/>
    <line x1="284.0" y1="46.0" x2="320.0" y2="46.0" stroke="#202829" stroke-width="1.05" opacity="0.085"/>
    <line x1="284.0" y1="46.0" x2="320.0" y2="78.0" stroke="#202829" stroke-width="1.05" opacity="0.085"/>
    <line x1="284.0" y1="46.0" x2="284.0" y2="78.0" stroke="#202829" stroke-width="1.05" opacity="0.085"/>
    <line x1="320.0" y1="46.0" x2="356.0" y2="46.0" stroke="#202829" stroke-width="1.05" opacity="0.085"/>
    <line x1="320.0" y1="46.0" x2="356.0" y2="78.0" stroke="#202829" stroke-width="1.05" opacity="0.085"/>
    <line x1="320.0" y1="46.0" x2="320.0" y2="78.0" stroke="#202829" stroke-width="1.05" opacity="0.085"/>
    <line x1="356.0" y1="46.0" x2="392.0" y2="46.0" stroke="#202829" stroke-width="1.05" opacity="0.085"/>
    <line x1="356.0" y1="46.0" x2="392.0" y2="78.0" stroke="#202829" stroke-width="1.05" opacity="0.085"/>
    <line x1="356.0" y1="46.0" x2="356.0" y2="78.0" stroke="#202829" stroke-width="1.05" opacity="0.085"/>
    <line x1="392.0" y1="46.0" x2="428.0" y2="46.0" stroke="#202829" stroke-width="1.05" opacity="0.085"/>
    <line x1="392.0" y1="46.0" x2="428.0" y2="78.0" stroke="#202829" stroke-width="1.05" opacity="0.085"/>
    <line x1="392.0" y1="46.0" x2="392.0" y2="78.0" stroke="#202829" stroke-width="1.05" opacity="0.085"/>
    <line x1="428.0" y1="46.0" x2="428.0" y2="78.0" stroke="#202829" stroke-width="1.05" opacity="0.085"/>
    <line x1="32.0" y1="78.0" x2="68.0" y2="78.0" stroke="#202829" stroke-width="1.05" opacity="0.085"/>
    <line x1="32.0" y1="78.0" x2="68.0" y2="46.0" stroke="#202829" stroke-width="1.05" opacity="0.085"/>
    <line x1="32.0" y1="78.0" x2="68.0" y2="110.0" stroke="#202829" stroke-width="1.05" opacity="0.085"/>
    <line x1="32.0" y1="78.0" x2="32.0" y2="110.0" stroke="#202829" stroke-width="1.05" opacity="0.085"/>
    <line x1="68.0" y1="78.0" x2="104.0" y2="78.0" stroke="#202829" stroke-width="1.05" opacity="0.085"/>
    <line x1="68.0" y1="78.0" x2="104.0" y2="46.0" stroke="#202829" stroke-width="1.05" opacity="0.085"/>
    <line x1="68.0" y1="78.0" x2="104.0" y2="110.0" stroke="#202829" stroke-width="1.05" opacity="0.085"/>
    <line x1="68.0" y1="78.0" x2="68.0" y2="110.0" stroke="#202829" stroke-width="1.05" opacity="0.085"/>
    <line x1="104.0" y1="78.0" x2="140.0" y2="78.0" stroke="#202829" stroke-width="1.05" opacity="0.085"/>
    <line x1="104.0" y1="78.0" x2="140.0" y2="46.0" stroke="#202829" stroke-width="1.05" opacity="0.085"/>
    <line x1="104.0" y1="78.0" x2="140.0" y2="110.0" stroke="#202829" stroke-width="1.05" opacity="0.085"/>
    <line x1="104.0" y1="78.0" x2="104.0" y2="110.0" stroke="#202829" stroke-width="1.05" opacity="0.085"/>
    <line x1="140.0" y1="78.0" x2="176.0" y2="78.0" stroke="#202829" stroke-width="1.05" opacity="0.085"/>
    <line x1="140.0" y1="78.0" x2="176.0" y2="46.0" stroke="#202829" stroke-width="1.05" opacity="0.085"/>
    <line x1="140.0" y1="78.0" x2="176.0" y2="110.0" stroke="#202829" stroke-width="1.05" opacity="0.085"/>
    <line x1="140.0" y1="78.0" x2="140.0" y2="110.0" stroke="#202829" stroke-width="1.05" opacity="0.085"/>
    <line x1="176.0" y1="78.0" x2="212.0" y2="78.0" stroke="#d86c5f" stroke-width="1.15" opacity="0.10"/>
    <line x1="176.0" y1="78.0" x2="212.0" y2="46.0" stroke="#202829" stroke-width="1.05" opacity="0.085"/>
    <line x1="176.0" y1="78.0" x2="212.0" y2="110.0" stroke="#202829" stroke-width="1.05" opacity="0.085"/>
    <line x1="176.0" y1="78.0" x2="176.0" y2="110.0" stroke="#202829" stroke-width="1.05" opacity="0.085"/>
    <line x1="212.0" y1="78.0" x2="248.0" y2="78.0" stroke="#202829" stroke-width="1.05" opacity="0.085"/>
    <line x1="212.0" y1="78.0" x2="248.0" y2="46.0" stroke="#202829" stroke-width="1.05" opacity="0.085"/>
    <line x1="212.0" y1="78.0" x2="248.0" y2="110.0" stroke="#d86c5f" stroke-width="1.15" opacity="0.10"/>
    <line x1="212.0" y1="78.0" x2="212.0" y2="110.0" stroke="#202829" stroke-width="1.05" opacity="0.085"/>
    <line x1="248.0" y1="78.0" x2="284.0" y2="78.0" stroke="#202829" stroke-width="1.05" opacity="0.085"/>
    <line x1="248.0" y1="78.0" x2="284.0" y2="46.0" stroke="#202829" stroke-width="1.05" opacity="0.085"/>
    <line x1="248.0" y1="78.0" x2="284.0" y2="110.0" stroke="#202829" stroke-width="1.05" opacity="0.085"/>
    <line x1="248.0" y1="78.0" x2="248.0" y2="110.0" stroke="#202829" stroke-width="1.05" opacity="0.085"/>
    <line x1="284.0" y1="78.0" x2="320.0" y2="78.0" stroke="#d86c5f" stroke-width="1.15" opacity="0.10"/>
    <line x1="284.0" y1="78.0" x2="320.0" y2="46.0" stroke="#202829" stroke-width="1.05" opacity="0.085"/>
    <line x1="284.0" y1="78.0" x2="320.0" y2="110.0" stroke="#202829" stroke-width="1.05" opacity="0.085"/>
    <line x1="284.0" y1="78.0" x2="284.0" y2="110.0" stroke="#202829" stroke-width="1.05" opacity="0.085"/>
    <line x1="320.0" y1="78.0" x2="356.0" y2="78.0" stroke="#202829" stroke-width="1.05" opacity="0.085"/>
    <line x1="320.0" y1="78.0" x2="356.0" y2="46.0" stroke="#202829" stroke-width="1.05" opacity="0.085"/>
    <line x1="320.0" y1="78.0" x2="356.0" y2="110.0" stroke="#d86c5f" stroke-width="1.15" opacity="0.10"/>
    <line x1="320.0" y1="78.0" x2="320.0" y2="110.0" stroke="#202829" stroke-width="1.05" opacity="0.085"/>
    <line x1="356.0" y1="78.0" x2="392.0" y2="78.0" stroke="#202829" stroke-width="1.05" opacity="0.085"/>
    <line x1="356.0" y1="78.0" x2="392.0" y2="46.0" stroke="#202829" stroke-width="1.05" opacity="0.085"/>
    <line x1="356.0" y1="78.0" x2="392.0" y2="110.0" stroke="#202829" stroke-width="1.05" opacity="0.085"/>
    <line x1="356.0" y1="78.0" x2="356.0" y2="110.0" stroke="#202829" stroke-width="1.05" opacity="0.085"/>
    <line x1="392.0" y1="78.0" x2="428.0" y2="78.0" stroke="#202829" stroke-width="1.05" opacity="0.085"/>
    <line x1="392.0" y1="78.0" x2="428.0" y2="46.0" stroke="#202829" stroke-width="1.05" opacity="0.085"/>
    <line x1="392.0" y1="78.0" x2="428.0" y2="110.0" stroke="#202829" stroke-width="1.05" opacity="0.085"/>
    <line x1="392.0" y1="78.0" x2="392.0" y2="110.0" stroke="#202829" stroke-width="1.05" opacity="0.085"/>
    <line x1="428.0" y1="78.0" x2="428.0" y2="110.0" stroke="#202829" stroke-width="1.05" opacity="0.085"/>
    <line x1="32.0" y1="110.0" x2="68.0" y2="110.0" stroke="#202829" stroke-width="1.05" opacity="0.085"/>
    <line x1="32.0" y1="110.0" x2="68.0" y2="78.0" stroke="#202829" stroke-width="1.05" opacity="0.085"/>
    <line x1="32.0" y1="110.0" x2="68.0" y2="142.0" stroke="#202829" stroke-width="1.05" opacity="0.085"/>
    <line x1="32.0" y1="110.0" x2="32.0" y2="142.0" stroke="#202829" stroke-width="1.05" opacity="0.085"/>
    <line x1="68.0" y1="110.0" x2="104.0" y2="110.0" stroke="#202829" stroke-width="1.05" opacity="0.085"/>
    <line x1="68.0" y1="110.0" x2="104.0" y2="78.0" stroke="#202829" stroke-width="1.05" opacity="0.085"/>
    <line x1="68.0" y1="110.0" x2="104.0" y2="142.0" stroke="#202829" stroke-width="1.05" opacity="0.085"/>
    <line x1="68.0" y1="110.0" x2="68.0" y2="142.0" stroke="#202829" stroke-width="1.05" opacity="0.085"/>
    <line x1="104.0" y1="110.0" x2="140.0" y2="110.0" stroke="#202829" stroke-width="1.05" opacity="0.085"/>
    <line x1="104.0" y1="110.0" x2="140.0" y2="78.0" stroke="#202829" stroke-width="1.05" opacity="0.085"/>
    <line x1="104.0" y1="110.0" x2="140.0" y2="142.0" stroke="#202829" stroke-width="1.05" opacity="0.085"/>
    <line x1="104.0" y1="110.0" x2="104.0" y2="142.0" stroke="#202829" stroke-width="1.05" opacity="0.085"/>
    <line x1="140.0" y1="110.0" x2="176.0" y2="110.0" stroke="#202829" stroke-width="1.05" opacity="0.085"/>
    <line x1="140.0" y1="110.0" x2="176.0" y2="78.0" stroke="#d86c5f" stroke-width="1.15" opacity="0.10"/>
    <line x1="140.0" y1="110.0" x2="176.0" y2="142.0" stroke="#202829" stroke-width="1.05" opacity="0.085"/>
    <line x1="140.0" y1="110.0" x2="140.0" y2="142.0" stroke="#d86c5f" stroke-width="1.15" opacity="0.10"/>
    <line x1="176.0" y1="110.0" x2="212.0" y2="110.0" stroke="#202829" stroke-width="1.05" opacity="0.085"/>
    <line x1="176.0" y1="110.0" x2="212.0" y2="78.0" stroke="#202829" stroke-width="1.05" opacity="0.085"/>
    <line x1="176.0" y1="110.0" x2="212.0" y2="142.0" stroke="#202829" stroke-width="1.05" opacity="0.085"/>
    <line x1="176.0" y1="110.0" x2="176.0" y2="142.0" stroke="#202829" stroke-width="1.05" opacity="0.085"/>
    <line x1="212.0" y1="110.0" x2="248.0" y2="110.0" stroke="#202829" stroke-width="1.05" opacity="0.085"/>
    <line x1="212.0" y1="110.0" x2="248.0" y2="78.0" stroke="#202829" stroke-width="1.05" opacity="0.085"/>
    <line x1="212.0" y1="110.0" x2="248.0" y2="142.0" stroke="#202829" stroke-width="1.05" opacity="0.085"/>
    <line x1="212.0" y1="110.0" x2="212.0" y2="142.0" stroke="#202829" stroke-width="1.05" opacity="0.085"/>
    <line x1="248.0" y1="110.0" x2="284.0" y2="110.0" stroke="#202829" stroke-width="1.05" opacity="0.085"/>
    <line x1="248.0" y1="110.0" x2="284.0" y2="78.0" stroke="#d86c5f" stroke-width="1.15" opacity="0.10"/>
    <line x1="248.0" y1="110.0" x2="284.0" y2="142.0" stroke="#202829" stroke-width="1.05" opacity="0.085"/>
    <line x1="248.0" y1="110.0" x2="248.0" y2="142.0" stroke="#202829" stroke-width="1.05" opacity="0.085"/>
    <line x1="284.0" y1="110.0" x2="320.0" y2="110.0" stroke="#202829" stroke-width="1.05" opacity="0.085"/>
    <line x1="284.0" y1="110.0" x2="320.0" y2="78.0" stroke="#202829" stroke-width="1.05" opacity="0.085"/>
    <line x1="284.0" y1="110.0" x2="320.0" y2="142.0" stroke="#202829" stroke-width="1.05" opacity="0.085"/>
    <line x1="284.0" y1="110.0" x2="284.0" y2="142.0" stroke="#202829" stroke-width="1.05" opacity="0.085"/>
    <line x1="320.0" y1="110.0" x2="356.0" y2="110.0" stroke="#202829" stroke-width="1.05" opacity="0.085"/>
    <line x1="320.0" y1="110.0" x2="356.0" y2="78.0" stroke="#202829" stroke-width="1.05" opacity="0.085"/>
    <line x1="320.0" y1="110.0" x2="356.0" y2="142.0" stroke="#202829" stroke-width="1.05" opacity="0.085"/>
    <line x1="320.0" y1="110.0" x2="320.0" y2="142.0" stroke="#202829" stroke-width="1.05" opacity="0.085"/>
    <line x1="356.0" y1="110.0" x2="392.0" y2="110.0" stroke="#202829" stroke-width="1.05" opacity="0.085"/>
    <line x1="356.0" y1="110.0" x2="392.0" y2="78.0" stroke="#202829" stroke-width="1.05" opacity="0.085"/>
    <line x1="356.0" y1="110.0" x2="392.0" y2="142.0" stroke="#202829" stroke-width="1.05" opacity="0.085"/>
    <line x1="356.0" y1="110.0" x2="356.0" y2="142.0" stroke="#d86c5f" stroke-width="1.15" opacity="0.10"/>
    <line x1="392.0" y1="110.0" x2="428.0" y2="110.0" stroke="#202829" stroke-width="1.05" opacity="0.085"/>
    <line x1="392.0" y1="110.0" x2="428.0" y2="78.0" stroke="#202829" stroke-width="1.05" opacity="0.085"/>
    <line x1="392.0" y1="110.0" x2="428.0" y2="142.0" stroke="#202829" stroke-width="1.05" opacity="0.085"/>
    <line x1="392.0" y1="110.0" x2="392.0" y2="142.0" stroke="#202829" stroke-width="1.05" opacity="0.085"/>
    <line x1="428.0" y1="110.0" x2="428.0" y2="142.0" stroke="#202829" stroke-width="1.05" opacity="0.085"/>
    <line x1="32.0" y1="142.0" x2="68.0" y2="142.0" stroke="#202829" stroke-width="1.05" opacity="0.085"/>
    <line x1="32.0" y1="142.0" x2="68.0" y2="110.0" stroke="#202829" stroke-width="1.05" opacity="0.085"/>
    <line x1="32.0" y1="142.0" x2="68.0" y2="174.0" stroke="#202829" stroke-width="1.05" opacity="0.085"/>
    <line x1="32.0" y1="142.0" x2="32.0" y2="174.0" stroke="#202829" stroke-width="1.05" opacity="0.085"/>
    <line x1="68.0" y1="142.0" x2="104.0" y2="142.0" stroke="#202829" stroke-width="1.05" opacity="0.085"/>
    <line x1="68.0" y1="142.0" x2="104.0" y2="110.0" stroke="#202829" stroke-width="1.05" opacity="0.085"/>
    <line x1="68.0" y1="142.0" x2="104.0" y2="174.0" stroke="#202829" stroke-width="1.05" opacity="0.085"/>
    <line x1="68.0" y1="142.0" x2="68.0" y2="174.0" stroke="#202829" stroke-width="1.05" opacity="0.085"/>
    <line x1="104.0" y1="142.0" x2="140.0" y2="142.0" stroke="#202829" stroke-width="1.05" opacity="0.085"/>
    <line x1="104.0" y1="142.0" x2="140.0" y2="110.0" stroke="#202829" stroke-width="1.05" opacity="0.085"/>
    <line x1="104.0" y1="142.0" x2="140.0" y2="174.0" stroke="#202829" stroke-width="1.05" opacity="0.085"/>
    <line x1="104.0" y1="142.0" x2="104.0" y2="174.0" stroke="#202829" stroke-width="1.05" opacity="0.085"/>
    <line x1="140.0" y1="142.0" x2="176.0" y2="142.0" stroke="#202829" stroke-width="1.05" opacity="0.085"/>
    <line x1="140.0" y1="142.0" x2="176.0" y2="110.0" stroke="#202829" stroke-width="1.05" opacity="0.085"/>
    <line x1="140.0" y1="142.0" x2="176.0" y2="174.0" stroke="#d86c5f" stroke-width="1.15" opacity="0.10"/>
    <line x1="140.0" y1="142.0" x2="140.0" y2="174.0" stroke="#202829" stroke-width="1.05" opacity="0.085"/>
    <line x1="176.0" y1="142.0" x2="212.0" y2="142.0" stroke="#202829" stroke-width="1.05" opacity="0.085"/>
    <line x1="176.0" y1="142.0" x2="212.0" y2="110.0" stroke="#202829" stroke-width="1.05" opacity="0.085"/>
    <line x1="176.0" y1="142.0" x2="212.0" y2="174.0" stroke="#202829" stroke-width="1.05" opacity="0.085"/>
    <line x1="176.0" y1="142.0" x2="176.0" y2="174.0" stroke="#202829" stroke-width="1.05" opacity="0.085"/>
    <line x1="212.0" y1="142.0" x2="248.0" y2="142.0" stroke="#202829" stroke-width="1.05" opacity="0.085"/>
    <line x1="212.0" y1="142.0" x2="248.0" y2="110.0" stroke="#202829" stroke-width="1.05" opacity="0.085"/>
    <line x1="212.0" y1="142.0" x2="248.0" y2="174.0" stroke="#202829" stroke-width="1.05" opacity="0.085"/>
    <line x1="212.0" y1="142.0" x2="212.0" y2="174.0" stroke="#202829" stroke-width="1.05" opacity="0.085"/>
    <line x1="248.0" y1="142.0" x2="284.0" y2="142.0" stroke="#202829" stroke-width="1.05" opacity="0.085"/>
    <line x1="248.0" y1="142.0" x2="284.0" y2="110.0" stroke="#202829" stroke-width="1.05" opacity="0.085"/>
    <line x1="248.0" y1="142.0" x2="284.0" y2="174.0" stroke="#202829" stroke-width="1.05" opacity="0.085"/>
    <line x1="248.0" y1="142.0" x2="248.0" y2="174.0" stroke="#202829" stroke-width="1.05" opacity="0.085"/>
    <line x1="284.0" y1="142.0" x2="320.0" y2="142.0" stroke="#202829" stroke-width="1.05" opacity="0.085"/>
    <line x1="284.0" y1="142.0" x2="320.0" y2="110.0" stroke="#202829" stroke-width="1.05" opacity="0.085"/>
    <line x1="284.0" y1="142.0" x2="320.0" y2="174.0" stroke="#202829" stroke-width="1.05" opacity="0.085"/>
    <line x1="284.0" y1="142.0" x2="284.0" y2="174.0" stroke="#202829" stroke-width="1.05" opacity="0.085"/>
    <line x1="320.0" y1="142.0" x2="356.0" y2="142.0" stroke="#202829" stroke-width="1.05" opacity="0.085"/>
    <line x1="320.0" y1="142.0" x2="356.0" y2="110.0" stroke="#202829" stroke-width="1.05" opacity="0.085"/>
    <line x1="320.0" y1="142.0" x2="356.0" y2="174.0" stroke="#202829" stroke-width="1.05" opacity="0.085"/>
    <line x1="320.0" y1="142.0" x2="320.0" y2="174.0" stroke="#202829" stroke-width="1.05" opacity="0.085"/>
    <line x1="356.0" y1="142.0" x2="392.0" y2="142.0" stroke="#202829" stroke-width="1.05" opacity="0.085"/>
    <line x1="356.0" y1="142.0" x2="392.0" y2="110.0" stroke="#202829" stroke-width="1.05" opacity="0.085"/>
    <line x1="356.0" y1="142.0" x2="392.0" y2="174.0" stroke="#202829" stroke-width="1.05" opacity="0.085"/>
    <line x1="356.0" y1="142.0" x2="356.0" y2="174.0" stroke="#202829" stroke-width="1.05" opacity="0.085"/>
    <line x1="392.0" y1="142.0" x2="428.0" y2="142.0" stroke="#202829" stroke-width="1.05" opacity="0.085"/>
    <line x1="392.0" y1="142.0" x2="428.0" y2="110.0" stroke="#202829" stroke-width="1.05" opacity="0.085"/>
    <line x1="392.0" y1="142.0" x2="428.0" y2="174.0" stroke="#202829" stroke-width="1.05" opacity="0.085"/>
    <line x1="392.0" y1="142.0" x2="392.0" y2="174.0" stroke="#202829" stroke-width="1.05" opacity="0.085"/>
    <line x1="428.0" y1="142.0" x2="428.0" y2="174.0" stroke="#202829" stroke-width="1.05" opacity="0.085"/>
    <line x1="32.0" y1="174.0" x2="68.0" y2="174.0" stroke="#202829" stroke-width="1.05" opacity="0.085"/>
    <line x1="32.0" y1="174.0" x2="68.0" y2="142.0" stroke="#202829" stroke-width="1.05" opacity="0.085"/>
    <line x1="32.0" y1="174.0" x2="68.0" y2="206.0" stroke="#202829" stroke-width="1.05" opacity="0.085"/>
    <line x1="32.0" y1="174.0" x2="32.0" y2="206.0" stroke="#202829" stroke-width="1.05" opacity="0.085"/>
    <line x1="68.0" y1="174.0" x2="104.0" y2="174.0" stroke="#202829" stroke-width="1.05" opacity="0.085"/>
    <line x1="68.0" y1="174.0" x2="104.0" y2="142.0" stroke="#202829" stroke-width="1.05" opacity="0.085"/>
    <line x1="68.0" y1="174.0" x2="104.0" y2="206.0" stroke="#202829" stroke-width="1.05" opacity="0.085"/>
    <line x1="68.0" y1="174.0" x2="68.0" y2="206.0" stroke="#202829" stroke-width="1.05" opacity="0.085"/>
    <line x1="104.0" y1="174.0" x2="140.0" y2="174.0" stroke="#202829" stroke-width="1.05" opacity="0.085"/>
    <line x1="104.0" y1="174.0" x2="140.0" y2="142.0" stroke="#202829" stroke-width="1.05" opacity="0.085"/>
    <line x1="104.0" y1="174.0" x2="140.0" y2="206.0" stroke="#202829" stroke-width="1.05" opacity="0.085"/>
    <line x1="104.0" y1="174.0" x2="104.0" y2="206.0" stroke="#202829" stroke-width="1.05" opacity="0.085"/>
    <line x1="140.0" y1="174.0" x2="176.0" y2="174.0" stroke="#202829" stroke-width="1.05" opacity="0.085"/>
    <line x1="140.0" y1="174.0" x2="176.0" y2="142.0" stroke="#202829" stroke-width="1.05" opacity="0.085"/>
    <line x1="140.0" y1="174.0" x2="176.0" y2="206.0" stroke="#202829" stroke-width="1.05" opacity="0.085"/>
    <line x1="140.0" y1="174.0" x2="140.0" y2="206.0" stroke="#202829" stroke-width="1.05" opacity="0.085"/>
    <line x1="176.0" y1="174.0" x2="212.0" y2="174.0" stroke="#202829" stroke-width="1.05" opacity="0.085"/>
    <line x1="176.0" y1="174.0" x2="212.0" y2="142.0" stroke="#202829" stroke-width="1.05" opacity="0.085"/>
    <line x1="176.0" y1="174.0" x2="212.0" y2="206.0" stroke="#d86c5f" stroke-width="1.15" opacity="0.10"/>
    <line x1="176.0" y1="174.0" x2="176.0" y2="206.0" stroke="#202829" stroke-width="1.05" opacity="0.085"/>
    <line x1="212.0" y1="174.0" x2="248.0" y2="174.0" stroke="#202829" stroke-width="1.05" opacity="0.085"/>
    <line x1="212.0" y1="174.0" x2="248.0" y2="142.0" stroke="#202829" stroke-width="1.05" opacity="0.085"/>
    <line x1="212.0" y1="174.0" x2="248.0" y2="206.0" stroke="#202829" stroke-width="1.05" opacity="0.085"/>
    <line x1="212.0" y1="174.0" x2="212.0" y2="206.0" stroke="#202829" stroke-width="1.05" opacity="0.085"/>
    <line x1="248.0" y1="174.0" x2="284.0" y2="174.0" stroke="#202829" stroke-width="1.05" opacity="0.085"/>
    <line x1="248.0" y1="174.0" x2="284.0" y2="142.0" stroke="#202829" stroke-width="1.05" opacity="0.085"/>
    <line x1="248.0" y1="174.0" x2="284.0" y2="206.0" stroke="#202829" stroke-width="1.05" opacity="0.085"/>
    <line x1="248.0" y1="174.0" x2="248.0" y2="206.0" stroke="#202829" stroke-width="1.05" opacity="0.085"/>
    <line x1="284.0" y1="174.0" x2="320.0" y2="174.0" stroke="#202829" stroke-width="1.05" opacity="0.085"/>
    <line x1="284.0" y1="174.0" x2="320.0" y2="142.0" stroke="#202829" stroke-width="1.05" opacity="0.085"/>
    <line x1="284.0" y1="174.0" x2="320.0" y2="206.0" stroke="#202829" stroke-width="1.05" opacity="0.085"/>
    <line x1="284.0" y1="174.0" x2="284.0" y2="206.0" stroke="#202829" stroke-width="1.05" opacity="0.085"/>
    <line x1="320.0" y1="174.0" x2="356.0" y2="174.0" stroke="#202829" stroke-width="1.05" opacity="0.085"/>
    <line x1="320.0" y1="174.0" x2="356.0" y2="142.0" stroke="#d86c5f" stroke-width="1.15" opacity="0.10"/>
    <line x1="320.0" y1="174.0" x2="356.0" y2="206.0" stroke="#202829" stroke-width="1.05" opacity="0.085"/>
    <line x1="320.0" y1="174.0" x2="320.0" y2="206.0" stroke="#202829" stroke-width="1.05" opacity="0.085"/>
    <line x1="356.0" y1="174.0" x2="392.0" y2="174.0" stroke="#202829" stroke-width="1.05" opacity="0.085"/>
    <line x1="356.0" y1="174.0" x2="392.0" y2="142.0" stroke="#202829" stroke-width="1.05" opacity="0.085"/>
    <line x1="356.0" y1="174.0" x2="392.0" y2="206.0" stroke="#202829" stroke-width="1.05" opacity="0.085"/>
    <line x1="356.0" y1="174.0" x2="356.0" y2="206.0" stroke="#202829" stroke-width="1.05" opacity="0.085"/>
    <line x1="392.0" y1="174.0" x2="428.0" y2="174.0" stroke="#202829" stroke-width="1.05" opacity="0.085"/>
    <line x1="392.0" y1="174.0" x2="428.0" y2="142.0" stroke="#202829" stroke-width="1.05" opacity="0.085"/>
    <line x1="392.0" y1="174.0" x2="428.0" y2="206.0" stroke="#202829" stroke-width="1.05" opacity="0.085"/>
    <line x1="392.0" y1="174.0" x2="392.0" y2="206.0" stroke="#202829" stroke-width="1.05" opacity="0.085"/>
    <line x1="428.0" y1="174.0" x2="428.0" y2="206.0" stroke="#202829" stroke-width="1.05" opacity="0.085"/>
    <line x1="32.0" y1="206.0" x2="68.0" y2="206.0" stroke="#202829" stroke-width="1.05" opacity="0.085"/>
    <line x1="32.0" y1="206.0" x2="68.0" y2="174.0" stroke="#202829" stroke-width="1.05" opacity="0.085"/>
    <line x1="32.0" y1="206.0" x2="68.0" y2="238.0" stroke="#202829" stroke-width="1.05" opacity="0.085"/>
    <line x1="32.0" y1="206.0" x2="32.0" y2="238.0" stroke="#202829" stroke-width="1.05" opacity="0.085"/>
    <line x1="68.0" y1="206.0" x2="104.0" y2="206.0" stroke="#202829" stroke-width="1.05" opacity="0.085"/>
    <line x1="68.0" y1="206.0" x2="104.0" y2="174.0" stroke="#202829" stroke-width="1.05" opacity="0.085"/>
    <line x1="68.0" y1="206.0" x2="104.0" y2="238.0" stroke="#202829" stroke-width="1.05" opacity="0.085"/>
    <line x1="68.0" y1="206.0" x2="68.0" y2="238.0" stroke="#202829" stroke-width="1.05" opacity="0.085"/>
    <line x1="104.0" y1="206.0" x2="140.0" y2="206.0" stroke="#202829" stroke-width="1.05" opacity="0.085"/>
    <line x1="104.0" y1="206.0" x2="140.0" y2="174.0" stroke="#202829" stroke-width="1.05" opacity="0.085"/>
    <line x1="104.0" y1="206.0" x2="140.0" y2="238.0" stroke="#202829" stroke-width="1.05" opacity="0.085"/>
    <line x1="104.0" y1="206.0" x2="104.0" y2="238.0" stroke="#202829" stroke-width="1.05" opacity="0.085"/>
    <line x1="140.0" y1="206.0" x2="176.0" y2="206.0" stroke="#202829" stroke-width="1.05" opacity="0.085"/>
    <line x1="140.0" y1="206.0" x2="176.0" y2="174.0" stroke="#202829" stroke-width="1.05" opacity="0.085"/>
    <line x1="140.0" y1="206.0" x2="176.0" y2="238.0" stroke="#202829" stroke-width="1.05" opacity="0.085"/>
    <line x1="140.0" y1="206.0" x2="140.0" y2="238.0" stroke="#202829" stroke-width="1.05" opacity="0.085"/>
    <line x1="176.0" y1="206.0" x2="212.0" y2="206.0" stroke="#202829" stroke-width="1.05" opacity="0.085"/>
    <line x1="176.0" y1="206.0" x2="212.0" y2="174.0" stroke="#202829" stroke-width="1.05" opacity="0.085"/>
    <line x1="176.0" y1="206.0" x2="212.0" y2="238.0" stroke="#202829" stroke-width="1.05" opacity="0.085"/>
    <line x1="176.0" y1="206.0" x2="176.0" y2="238.0" stroke="#202829" stroke-width="1.05" opacity="0.085"/>
    <line x1="212.0" y1="206.0" x2="248.0" y2="206.0" stroke="#202829" stroke-width="1.05" opacity="0.085"/>
    <line x1="212.0" y1="206.0" x2="248.0" y2="174.0" stroke="#202829" stroke-width="1.05" opacity="0.085"/>
    <line x1="212.0" y1="206.0" x2="248.0" y2="238.0" stroke="#d86c5f" stroke-width="1.15" opacity="0.10"/>
    <line x1="212.0" y1="206.0" x2="212.0" y2="238.0" stroke="#202829" stroke-width="1.05" opacity="0.085"/>
    <line x1="248.0" y1="206.0" x2="284.0" y2="206.0" stroke="#202829" stroke-width="1.05" opacity="0.085"/>
    <line x1="248.0" y1="206.0" x2="284.0" y2="174.0" stroke="#202829" stroke-width="1.05" opacity="0.085"/>
    <line x1="248.0" y1="206.0" x2="284.0" y2="238.0" stroke="#202829" stroke-width="1.05" opacity="0.085"/>
    <line x1="248.0" y1="206.0" x2="248.0" y2="238.0" stroke="#202829" stroke-width="1.05" opacity="0.085"/>
    <line x1="284.0" y1="206.0" x2="320.0" y2="206.0" stroke="#202829" stroke-width="1.05" opacity="0.085"/>
    <line x1="284.0" y1="206.0" x2="320.0" y2="174.0" stroke="#d86c5f" stroke-width="1.15" opacity="0.10"/>
    <line x1="284.0" y1="206.0" x2="320.0" y2="238.0" stroke="#202829" stroke-width="1.05" opacity="0.085"/>
    <line x1="284.0" y1="206.0" x2="284.0" y2="238.0" stroke="#202829" stroke-width="1.05" opacity="0.085"/>
    <line x1="320.0" y1="206.0" x2="356.0" y2="206.0" stroke="#202829" stroke-width="1.05" opacity="0.085"/>
    <line x1="320.0" y1="206.0" x2="356.0" y2="174.0" stroke="#202829" stroke-width="1.05" opacity="0.085"/>
    <line x1="320.0" y1="206.0" x2="356.0" y2="238.0" stroke="#202829" stroke-width="1.05" opacity="0.085"/>
    <line x1="320.0" y1="206.0" x2="320.0" y2="238.0" stroke="#202829" stroke-width="1.05" opacity="0.085"/>
    <line x1="356.0" y1="206.0" x2="392.0" y2="206.0" stroke="#202829" stroke-width="1.05" opacity="0.085"/>
    <line x1="356.0" y1="206.0" x2="392.0" y2="174.0" stroke="#202829" stroke-width="1.05" opacity="0.085"/>
    <line x1="356.0" y1="206.0" x2="392.0" y2="238.0" stroke="#202829" stroke-width="1.05" opacity="0.085"/>
    <line x1="356.0" y1="206.0" x2="356.0" y2="238.0" stroke="#202829" stroke-width="1.05" opacity="0.085"/>
    <line x1="392.0" y1="206.0" x2="428.0" y2="206.0" stroke="#202829" stroke-width="1.05" opacity="0.085"/>
    <line x1="392.0" y1="206.0" x2="428.0" y2="174.0" stroke="#202829" stroke-width="1.05" opacity="0.085"/>
    <line x1="392.0" y1="206.0" x2="428.0" y2="238.0" stroke="#202829" stroke-width="1.05" opacity="0.085"/>
    <line x1="392.0" y1="206.0" x2="392.0" y2="238.0" stroke="#202829" stroke-width="1.05" opacity="0.085"/>
    <line x1="428.0" y1="206.0" x2="428.0" y2="238.0" stroke="#202829" stroke-width="1.05" opacity="0.085"/>
    <line x1="32.0" y1="238.0" x2="68.0" y2="238.0" stroke="#202829" stroke-width="1.05" opacity="0.085"/>
    <line x1="32.0" y1="238.0" x2="68.0" y2="206.0" stroke="#202829" stroke-width="1.05" opacity="0.085"/>
    <line x1="32.0" y1="238.0" x2="68.0" y2="270.0" stroke="#202829" stroke-width="1.05" opacity="0.085"/>
    <line x1="32.0" y1="238.0" x2="32.0" y2="270.0" stroke="#202829" stroke-width="1.05" opacity="0.085"/>
    <line x1="68.0" y1="238.0" x2="104.0" y2="238.0" stroke="#202829" stroke-width="1.05" opacity="0.085"/>
    <line x1="68.0" y1="238.0" x2="104.0" y2="206.0" stroke="#202829" stroke-width="1.05" opacity="0.085"/>
    <line x1="68.0" y1="238.0" x2="104.0" y2="270.0" stroke="#202829" stroke-width="1.05" opacity="0.085"/>
    <line x1="68.0" y1="238.0" x2="68.0" y2="270.0" stroke="#202829" stroke-width="1.05" opacity="0.085"/>
    <line x1="104.0" y1="238.0" x2="140.0" y2="238.0" stroke="#202829" stroke-width="1.05" opacity="0.085"/>
    <line x1="104.0" y1="238.0" x2="140.0" y2="206.0" stroke="#202829" stroke-width="1.05" opacity="0.085"/>
    <line x1="104.0" y1="238.0" x2="140.0" y2="270.0" stroke="#202829" stroke-width="1.05" opacity="0.085"/>
    <line x1="104.0" y1="238.0" x2="104.0" y2="270.0" stroke="#202829" stroke-width="1.05" opacity="0.085"/>
    <line x1="140.0" y1="238.0" x2="176.0" y2="238.0" stroke="#202829" stroke-width="1.05" opacity="0.085"/>
    <line x1="140.0" y1="238.0" x2="176.0" y2="206.0" stroke="#202829" stroke-width="1.05" opacity="0.085"/>
    <line x1="140.0" y1="238.0" x2="176.0" y2="270.0" stroke="#202829" stroke-width="1.05" opacity="0.085"/>
    <line x1="140.0" y1="238.0" x2="140.0" y2="270.0" stroke="#202829" stroke-width="1.05" opacity="0.085"/>
    <line x1="176.0" y1="238.0" x2="212.0" y2="238.0" stroke="#202829" stroke-width="1.05" opacity="0.085"/>
    <line x1="176.0" y1="238.0" x2="212.0" y2="206.0" stroke="#202829" stroke-width="1.05" opacity="0.085"/>
    <line x1="176.0" y1="238.0" x2="212.0" y2="270.0" stroke="#202829" stroke-width="1.05" opacity="0.085"/>
    <line x1="176.0" y1="238.0" x2="176.0" y2="270.0" stroke="#202829" stroke-width="1.05" opacity="0.085"/>
    <line x1="212.0" y1="238.0" x2="248.0" y2="238.0" stroke="#202829" stroke-width="1.05" opacity="0.085"/>
    <line x1="212.0" y1="238.0" x2="248.0" y2="206.0" stroke="#202829" stroke-width="1.05" opacity="0.085"/>
    <line x1="212.0" y1="238.0" x2="248.0" y2="270.0" stroke="#202829" stroke-width="1.05" opacity="0.085"/>
    <line x1="212.0" y1="238.0" x2="212.0" y2="270.0" stroke="#202829" stroke-width="1.05" opacity="0.085"/>
    <line x1="248.0" y1="238.0" x2="284.0" y2="238.0" stroke="#202829" stroke-width="1.05" opacity="0.085"/>
    <line x1="248.0" y1="238.0" x2="284.0" y2="206.0" stroke="#d86c5f" stroke-width="1.15" opacity="0.10"/>
    <line x1="248.0" y1="238.0" x2="284.0" y2="270.0" stroke="#202829" stroke-width="1.05" opacity="0.085"/>
    <line x1="248.0" y1="238.0" x2="248.0" y2="270.0" stroke="#202829" stroke-width="1.05" opacity="0.085"/>
    <line x1="284.0" y1="238.0" x2="320.0" y2="238.0" stroke="#202829" stroke-width="1.05" opacity="0.085"/>
    <line x1="284.0" y1="238.0" x2="320.0" y2="206.0" stroke="#202829" stroke-width="1.05" opacity="0.085"/>
    <line x1="284.0" y1="238.0" x2="320.0" y2="270.0" stroke="#202829" stroke-width="1.05" opacity="0.085"/>
    <line x1="284.0" y1="238.0" x2="284.0" y2="270.0" stroke="#202829" stroke-width="1.05" opacity="0.085"/>
    <line x1="320.0" y1="238.0" x2="356.0" y2="238.0" stroke="#202829" stroke-width="1.05" opacity="0.085"/>
    <line x1="320.0" y1="238.0" x2="356.0" y2="206.0" stroke="#202829" stroke-width="1.05" opacity="0.085"/>
    <line x1="320.0" y1="238.0" x2="356.0" y2="270.0" stroke="#202829" stroke-width="1.05" opacity="0.085"/>
    <line x1="320.0" y1="238.0" x2="320.0" y2="270.0" stroke="#202829" stroke-width="1.05" opacity="0.085"/>
    <line x1="356.0" y1="238.0" x2="392.0" y2="238.0" stroke="#202829" stroke-width="1.05" opacity="0.085"/>
    <line x1="356.0" y1="238.0" x2="392.0" y2="206.0" stroke="#202829" stroke-width="1.05" opacity="0.085"/>
    <line x1="356.0" y1="238.0" x2="392.0" y2="270.0" stroke="#202829" stroke-width="1.05" opacity="0.085"/>
    <line x1="356.0" y1="238.0" x2="356.0" y2="270.0" stroke="#202829" stroke-width="1.05" opacity="0.085"/>
    <line x1="392.0" y1="238.0" x2="428.0" y2="238.0" stroke="#202829" stroke-width="1.05" opacity="0.085"/>
    <line x1="392.0" y1="238.0" x2="428.0" y2="206.0" stroke="#202829" stroke-width="1.05" opacity="0.085"/>
    <line x1="392.0" y1="238.0" x2="428.0" y2="270.0" stroke="#202829" stroke-width="1.05" opacity="0.085"/>
    <line x1="392.0" y1="238.0" x2="392.0" y2="270.0" stroke="#202829" stroke-width="1.05" opacity="0.085"/>
    <line x1="428.0" y1="238.0" x2="428.0" y2="270.0" stroke="#202829" stroke-width="1.05" opacity="0.085"/>
    <line x1="32.0" y1="270.0" x2="68.0" y2="270.0" stroke="#202829" stroke-width="1.05" opacity="0.085"/>
    <line x1="32.0" y1="270.0" x2="68.0" y2="238.0" stroke="#202829" stroke-width="1.05" opacity="0.085"/>
    <line x1="68.0" y1="270.0" x2="104.0" y2="270.0" stroke="#202829" stroke-width="1.05" opacity="0.085"/>
    <line x1="68.0" y1="270.0" x2="104.0" y2="238.0" stroke="#202829" stroke-width="1.05" opacity="0.085"/>
    <line x1="104.0" y1="270.0" x2="140.0" y2="270.0" stroke="#202829" stroke-width="1.05" opacity="0.085"/>
    <line x1="104.0" y1="270.0" x2="140.0" y2="238.0" stroke="#202829" stroke-width="1.05" opacity="0.085"/>
    <line x1="140.0" y1="270.0" x2="176.0" y2="270.0" stroke="#202829" stroke-width="1.05" opacity="0.085"/>
    <line x1="140.0" y1="270.0" x2="176.0" y2="238.0" stroke="#202829" stroke-width="1.05" opacity="0.085"/>
    <line x1="176.0" y1="270.0" x2="212.0" y2="270.0" stroke="#202829" stroke-width="1.05" opacity="0.085"/>
    <line x1="176.0" y1="270.0" x2="212.0" y2="238.0" stroke="#202829" stroke-width="1.05" opacity="0.085"/>
    <line x1="212.0" y1="270.0" x2="248.0" y2="270.0" stroke="#202829" stroke-width="1.05" opacity="0.085"/>
    <line x1="212.0" y1="270.0" x2="248.0" y2="238.0" stroke="#202829" stroke-width="1.05" opacity="0.085"/>
    <line x1="248.0" y1="270.0" x2="284.0" y2="270.0" stroke="#202829" stroke-width="1.05" opacity="0.085"/>
    <line x1="248.0" y1="270.0" x2="284.0" y2="238.0" stroke="#202829" stroke-width="1.05" opacity="0.085"/>
    <line x1="284.0" y1="270.0" x2="320.0" y2="270.0" stroke="#202829" stroke-width="1.05" opacity="0.085"/>
    <line x1="284.0" y1="270.0" x2="320.0" y2="238.0" stroke="#202829" stroke-width="1.05" opacity="0.085"/>
    <line x1="320.0" y1="270.0" x2="356.0" y2="270.0" stroke="#202829" stroke-width="1.05" opacity="0.085"/>
    <line x1="320.0" y1="270.0" x2="356.0" y2="238.0" stroke="#202829" stroke-width="1.05" opacity="0.085"/>
    <line x1="356.0" y1="270.0" x2="392.0" y2="270.0" stroke="#202829" stroke-width="1.05" opacity="0.085"/>
    <line x1="356.0" y1="270.0" x2="392.0" y2="238.0" stroke="#202829" stroke-width="1.05" opacity="0.085"/>
    <line x1="392.0" y1="270.0" x2="428.0" y2="270.0" stroke="#202829" stroke-width="1.05" opacity="0.085"/>
    <line x1="392.0" y1="270.0" x2="428.0" y2="238.0" stroke="#202829" stroke-width="1.05" opacity="0.085"/>
  </g>
  <g>
    <circle cx="32.0" cy="46.0" r="4.45" fill="#202829" opacity="0.30"/>
    <circle cx="68.0" cy="46.0" r="4.45" fill="#202829" opacity="0.30"/>
    <circle cx="104.0" cy="46.0" r="4.45" fill="#202829" opacity="0.30"/>
    <circle cx="140.0" cy="46.0" r="4.45" fill="#202829" opacity="0.30"/>
    <circle cx="176.0" cy="46.0" r="4.45" fill="#202829" opacity="0.30"/>
    <circle cx="212.0" cy="46.0" r="4.45" fill="#202829" opacity="0.30"/>
    <circle cx="248.0" cy="46.0" r="4.45" fill="#202829" opacity="0.30"/>
    <circle cx="284.0" cy="46.0" r="4.45" fill="#202829" opacity="0.30"/>
    <circle cx="320.0" cy="46.0" r="4.45" fill="#202829" opacity="0.30"/>
    <circle cx="356.0" cy="46.0" r="4.45" fill="#202829" opacity="0.30"/>
    <circle cx="392.0" cy="46.0" r="4.45" fill="#202829" opacity="0.30"/>
    <circle cx="428.0" cy="46.0" r="4.45" fill="#202829" opacity="0.30"/>
    <circle cx="32.0" cy="78.0" r="4.7" fill="#16858c" opacity="0.88"/>
    <circle cx="68.0" cy="78.0" r="4.45" fill="#202829" opacity="0.30"/>
    <circle cx="104.0" cy="78.0" r="4.45" fill="#202829" opacity="0.30"/>
    <circle cx="140.0" cy="78.0" r="4.45" fill="#202829" opacity="0.30"/>
    <circle cx="176.0" cy="78.0" r="4.55" fill="#d86c5f" opacity="0.70"/>
    <circle cx="212.0" cy="78.0" r="4.55" fill="#d86c5f" opacity="0.70"/>
    <circle cx="248.0" cy="78.0" r="4.45" fill="#202829" opacity="0.30"/>
    <circle cx="284.0" cy="78.0" r="4.55" fill="#d86c5f" opacity="0.70"/>
    <circle cx="320.0" cy="78.0" r="4.55" fill="#d86c5f" opacity="0.70"/>
    <circle cx="356.0" cy="78.0" r="4.45" fill="#202829" opacity="0.30"/>
    <circle cx="392.0" cy="78.0" r="4.45" fill="#202829" opacity="0.30"/>
    <circle cx="428.0" cy="78.0" r="4.7" fill="#16858c" opacity="0.88"/>
    <circle cx="32.0" cy="110.0" r="4.45" fill="#202829" opacity="0.30"/>
    <circle cx="68.0" cy="110.0" r="4.45" fill="#202829" opacity="0.30"/>
    <circle cx="104.0" cy="110.0" r="4.45" fill="#202829" opacity="0.30"/>
    <circle cx="140.0" cy="110.0" r="4.55" fill="#d86c5f" opacity="0.70"/>
    <circle cx="176.0" cy="110.0" r="4.45" fill="#202829" opacity="0.30"/>
    <circle cx="212.0" cy="110.0" r="4.45" fill="#202829" opacity="0.30"/>
    <circle cx="248.0" cy="110.0" r="4.55" fill="#d86c5f" opacity="0.70"/>
    <circle cx="284.0" cy="110.0" r="4.45" fill="#202829" opacity="0.30"/>
    <circle cx="320.0" cy="110.0" r="4.45" fill="#202829" opacity="0.30"/>
    <circle cx="356.0" cy="110.0" r="4.55" fill="#d86c5f" opacity="0.70"/>
    <circle cx="392.0" cy="110.0" r="4.45" fill="#202829" opacity="0.30"/>
    <circle cx="428.0" cy="110.0" r="4.45" fill="#202829" opacity="0.30"/>
    <circle cx="32.0" cy="142.0" r="4.7" fill="#16858c" opacity="0.88"/>
    <circle cx="68.0" cy="142.0" r="4.45" fill="#202829" opacity="0.30"/>
    <circle cx="104.0" cy="142.0" r="4.45" fill="#202829" opacity="0.30"/>
    <circle cx="140.0" cy="142.0" r="4.55" fill="#d86c5f" opacity="0.70"/>
    <circle cx="176.0" cy="142.0" r="4.45" fill="#202829" opacity="0.30"/>
    <circle cx="212.0" cy="142.0" r="4.45" fill="#202829" opacity="0.30"/>
    <circle cx="248.0" cy="142.0" r="4.45" fill="#202829" opacity="0.30"/>
    <circle cx="284.0" cy="142.0" r="4.45" fill="#202829" opacity="0.30"/>
    <circle cx="320.0" cy="142.0" r="4.45" fill="#202829" opacity="0.30"/>
    <circle cx="356.0" cy="142.0" r="4.55" fill="#d86c5f" opacity="0.70"/>
    <circle cx="392.0" cy="142.0" r="4.45" fill="#202829" opacity="0.30"/>
    <circle cx="428.0" cy="142.0" r="4.7" fill="#16858c" opacity="0.88"/>
    <circle cx="32.0" cy="174.0" r="4.45" fill="#202829" opacity="0.30"/>
    <circle cx="68.0" cy="174.0" r="4.45" fill="#202829" opacity="0.30"/>
    <circle cx="104.0" cy="174.0" r="4.45" fill="#202829" opacity="0.30"/>
    <circle cx="140.0" cy="174.0" r="4.45" fill="#202829" opacity="0.30"/>
    <circle cx="176.0" cy="174.0" r="4.55" fill="#d86c5f" opacity="0.70"/>
    <circle cx="212.0" cy="174.0" r="4.45" fill="#202829" opacity="0.30"/>
    <circle cx="248.0" cy="174.0" r="4.45" fill="#202829" opacity="0.30"/>
    <circle cx="284.0" cy="174.0" r="4.45" fill="#202829" opacity="0.30"/>
    <circle cx="320.0" cy="174.0" r="4.55" fill="#d86c5f" opacity="0.70"/>
    <circle cx="356.0" cy="174.0" r="4.45" fill="#202829" opacity="0.30"/>
    <circle cx="392.0" cy="174.0" r="4.45" fill="#202829" opacity="0.30"/>
    <circle cx="428.0" cy="174.0" r="4.45" fill="#202829" opacity="0.30"/>
    <circle cx="32.0" cy="206.0" r="4.7" fill="#16858c" opacity="0.88"/>
    <circle cx="68.0" cy="206.0" r="4.45" fill="#202829" opacity="0.30"/>
    <circle cx="104.0" cy="206.0" r="4.45" fill="#202829" opacity="0.30"/>
    <circle cx="140.0" cy="206.0" r="4.45" fill="#202829" opacity="0.30"/>
    <circle cx="176.0" cy="206.0" r="4.45" fill="#202829" opacity="0.30"/>
    <circle cx="212.0" cy="206.0" r="4.55" fill="#d86c5f" opacity="0.70"/>
    <circle cx="248.0" cy="206.0" r="4.45" fill="#202829" opacity="0.30"/>
    <circle cx="284.0" cy="206.0" r="4.55" fill="#d86c5f" opacity="0.70"/>
    <circle cx="320.0" cy="206.0" r="4.45" fill="#202829" opacity="0.30"/>
    <circle cx="356.0" cy="206.0" r="4.45" fill="#202829" opacity="0.30"/>
    <circle cx="392.0" cy="206.0" r="4.45" fill="#202829" opacity="0.30"/>
    <circle cx="428.0" cy="206.0" r="4.7" fill="#16858c" opacity="0.88"/>
    <circle cx="32.0" cy="238.0" r="4.45" fill="#202829" opacity="0.30"/>
    <circle cx="68.0" cy="238.0" r="4.45" fill="#202829" opacity="0.30"/>
    <circle cx="104.0" cy="238.0" r="4.45" fill="#202829" opacity="0.30"/>
    <circle cx="140.0" cy="238.0" r="4.45" fill="#202829" opacity="0.30"/>
    <circle cx="176.0" cy="238.0" r="4.45" fill="#202829" opacity="0.30"/>
    <circle cx="212.0" cy="238.0" r="4.45" fill="#202829" opacity="0.30"/>
    <circle cx="248.0" cy="238.0" r="4.55" fill="#d86c5f" opacity="0.70"/>
    <circle cx="284.0" cy="238.0" r="4.45" fill="#202829" opacity="0.30"/>
    <circle cx="320.0" cy="238.0" r="4.45" fill="#202829" opacity="0.30"/>
    <circle cx="356.0" cy="238.0" r="4.45" fill="#202829" opacity="0.30"/>
    <circle cx="392.0" cy="238.0" r="4.45" fill="#202829" opacity="0.30"/>
    <circle cx="428.0" cy="238.0" r="4.45" fill="#202829" opacity="0.30"/>
    <circle cx="32.0" cy="270.0" r="4.45" fill="#202829" opacity="0.30"/>
    <circle cx="68.0" cy="270.0" r="4.45" fill="#202829" opacity="0.30"/>
    <circle cx="104.0" cy="270.0" r="4.45" fill="#202829" opacity="0.30"/>
    <circle cx="140.0" cy="270.0" r="4.45" fill="#202829" opacity="0.30"/>
    <circle cx="176.0" cy="270.0" r="4.45" fill="#202829" opacity="0.30"/>
    <circle cx="212.0" cy="270.0" r="4.45" fill="#202829" opacity="0.30"/>
    <circle cx="248.0" cy="270.0" r="4.45" fill="#202829" opacity="0.30"/>
    <circle cx="284.0" cy="270.0" r="4.45" fill="#202829" opacity="0.30"/>
    <circle cx="320.0" cy="270.0" r="4.45" fill="#202829" opacity="0.30"/>
    <circle cx="356.0" cy="270.0" r="4.45" fill="#202829" opacity="0.30"/>
    <circle cx="392.0" cy="270.0" r="4.45" fill="#202829" opacity="0.30"/>
    <circle cx="428.0" cy="270.0" r="4.45" fill="#202829" opacity="0.30"/>
  </g>
</svg>